<svg xmlns="http://www.w3.org/2000/svg" viewBox="0 0 60 60" width="100%" height="100%"><path d="M25.0909091,20 C26.7970909,20 28.1818182,21.4933333 28.1818182,23.3333333 L28.1818182,36.6666667 C28.1818182,38.5066667 26.7970909,40 25.0909091,40 C23.3847273,40 22,38.5066667 22,36.6666667 L22,23.3333333 C22,21.4933333 23.3847273,20 25.0909091,20 Z M35.9090909,20 C37.6152727,20 39,21.4933333 39,23.3333333 L39,36.6666667 C39,38.5066667 37.6152727,40 35.9090909,40 C34.2029091,40 32.8181818,38.5066667 32.8181818,36.6666667 L32.8181818,23.3333333 C32.8181818,21.4933333 34.2029091,20 35.9090909,20 Z M30,0 C13.4,0 0,13.4 0,30 C0,46.6 13.4,60 30,60 C46.6,60 60,46.6 60,30 C60,13.4 46.6,0 30,0 Z M30,55 C16.2,55 5,43.8 5,30 C5,16.2 16.2,5 30,5 C43.8,5 55,16.2 55,30 C55,43.8 43.8,55 30,55 Z" id="Combined-Shape" stroke="none" fill="#ffffff" fill-rule="nonzero" style="fill: rgb(0, 0, 0);"></path></svg>