<svg xmlns="http://www.w3.org/2000/svg" viewBox="0 0 45 45"><defs><style>.cls-1{fill:#1b1b1a;}</style></defs><title>play</title><g id="Слой_2" data-name="Слой 2"><g id="Слой_1-2" data-name="Слой 1"><path class="cls-1" d="M45,21.77A22.5,22.5,0,1,0,21.77,45h.73A22.51,22.51,0,0,0,45,21.77ZM35.26,34.86a17.65,17.65,0,0,1-12.76,5.4h-.58A17.76,17.76,0,0,1,22.5,4.74h.58A17.76,17.76,0,0,1,35.26,34.86Z"/><path class="cls-1" d="M29.85,21.19,19.87,14a1.61,1.61,0,0,0-2.55,1.31v14.3A1.61,1.61,0,0,0,19.87,31l10-7.15A1.62,1.62,0,0,0,29.85,21.19Z"/></g></g></svg>