<svg xmlns="http://www.w3.org/2000/svg" viewBox="0 0 60 60" width="100%" height="100%"><path fill="#ffffff" stroke="none" d="M39.9,28.8l-12.5-9.1c-0.5-0.3-1.1-0.4-1.6-0.1c-0.5,0.3-0.8,0.8-0.8,1.3v18.1 c0,0.6,0.3,1.1,0.8,1.3c0.2,0.1,0.4,0.2,0.7,0.2c0.3,0,0.6-0.1,0.9-0.3l12.5-9c0.4-0.3,0.6-0.7,0.6-1.2 C40.5,29.6,40.3,29.1,39.9,28.8z M30,0C13.4,0,0,13.4,0,30c0,16.6,13.4,30,30,30c16.6,0,30-13.4,30-30C60,13.4,46.6,0,30,0z M30,55C16.2,55,5,43.8,5,30C5,16.2,16.2,5,30,5c13.8,0,25,11.2,25,25C55,43.8,43.8,55,30,55z" style="fill: rgb(0, 0, 0);"></path></svg>